<svg width="28" height="28" viewBox="0 0 28 28" xmlns="http://www.w3.org/2000/svg">
<path d="M23.8995 4.10052C21.2553 1.45627 17.7395 0 14 0C10.2605 0 6.74472 1.45627 4.10047 4.10052C1.45622 6.74477 0 10.2605 0 14C0 17.7395 1.45622 21.2553 4.10047 23.8995C6.74472 26.5437 10.2605 28 14 28C17.7395 28 21.2553 26.5437 23.8995 23.8995C26.5438 21.2552 28 17.7395 28 14C28 10.2605 26.5438 6.74472 23.8995 4.10052ZM14 25.2521C7.79554 25.2521 2.74794 20.2044 2.74794 14C2.74794 13.9898 2.74827 13.9798 2.74832 13.9697C2.74832 13.9671 2.74794 13.9647 2.74794 13.9621C2.74794 13.9578 2.74848 13.9536 2.74859 13.9494C2.77588 7.81927 7.72986 2.83194 13.8471 2.74991C13.8599 2.7493 13.8726 2.74799 13.8855 2.74799C13.8933 2.74799 13.9009 2.74892 13.9086 2.74914C13.9391 2.74892 13.9695 2.74799 14.0001 2.74799C20.2045 2.74799 25.2521 7.79565 25.2521 14.0001C25.2521 20.2045 20.2045 25.2521 14 25.2521Z"/>
<path d="M22.547 14.6762C22.0895 14.6762 21.7186 14.3053 21.7186 13.8478C21.7186 13.3903 22.0895 13.0194 22.547 13.0194H23.5455C23.0765 8.42146 19.3476 4.77397 14.7139 4.43152V5.30078C14.7139 5.75829 14.343 6.12918 13.8855 6.12918C13.428 6.12918 13.0571 5.75829 13.0571 5.30078V4.45132C8.49203 4.89866 4.8557 8.55846 4.44428 13.1338H5.33853C5.79605 13.1338 6.16694 13.5047 6.16694 13.9622C6.16694 14.4198 5.79605 14.7906 5.33853 14.7906H4.4375C4.8184 19.4397 8.52763 23.1603 13.1716 23.5593V22.5092C13.1716 22.0517 13.5425 21.6808 14 21.6808C14.4576 21.6808 14.8285 22.0517 14.8285 22.5092V23.5593C19.5105 23.157 23.2423 19.3784 23.5712 14.6762H22.547ZM17.3535 11.8183L14.5859 14.586C14.4305 14.7414 14.2198 14.8287 14.0001 14.8287C13.7804 14.8287 13.5697 14.7414 13.4143 14.586L8.59676 9.76842C8.27323 9.44494 8.27323 8.92043 8.59676 8.5969C8.92023 8.27337 9.44474 8.27337 9.76827 8.5969L14.0002 12.8287L16.1821 10.6468C16.5056 10.3233 17.0301 10.3233 17.3536 10.6468C17.677 10.9703 17.677 11.4948 17.3535 11.8183Z"/>
</svg>
