<svg width="18" height="20" viewBox="0 0 18 20" fill="none" xmlns="http://www.w3.org/2000/svg">
<path d="M9 17.232C9.32359 17.232 9.58594 16.9697 9.58594 16.6461V8.77856C9.58594 8.45497 9.32359 8.19263 9 8.19263C8.67641 8.19263 8.41406 8.45497 8.41406 8.77856V16.6461C8.41406 16.9697 8.67641 17.232 9 17.232Z" fill="black"/>
<path d="M5.77385 16.7013C5.80432 17.024 6.09084 17.26 6.41229 17.2295C6.73448 17.1991 6.97097 16.9133 6.94054 16.5911L6.19764 8.72351C6.16721 8.40136 5.8819 8.1648 5.5592 8.19527C5.23701 8.2257 5.00053 8.51152 5.03096 8.83371L5.77385 16.7013Z" fill="black"/>
<path d="M11.5885 17.2296C11.9103 17.2601 12.1965 17.0238 12.2269 16.7014L12.9698 8.83385C13.0002 8.51166 12.7637 8.22585 12.4416 8.19542C12.1189 8.16479 11.8336 8.40151 11.8031 8.72366L11.0603 16.5912C11.0298 16.9133 11.2663 17.1992 11.5885 17.2296Z" fill="black"/>
<path d="M1.25195 6.59668H1.60223L3.29941 19.4905C3.33777 19.7821 3.58629 20 3.88035 20H14.12C14.4141 20 14.6625 19.7821 14.7009 19.4905L16.3981 6.59668H16.7484C17.072 6.59668 17.3343 6.33434 17.3343 6.01074V3.44711C17.3343 3.12352 17.072 2.86117 16.7484 2.86117H11.7345V2.63027C11.7345 1.17996 10.5545 0 9.10418 0H8.89617C7.44586 0 6.2659 1.17996 6.2659 2.63027V2.86117H1.25195C0.928359 2.86117 0.666016 3.12352 0.666016 3.44711V6.01074C0.666016 6.33434 0.92832 6.59668 1.25195 6.59668ZM13.6061 18.8281H4.39418L2.78422 6.59668H15.2161L13.6061 18.8281ZM7.43774 2.63027C7.43774 1.82613 8.09199 1.17188 8.89613 1.17188H9.10414C9.90828 1.17188 10.5625 1.82613 10.5625 2.63027V2.86117H7.43774V2.63027ZM1.83789 4.03305H16.1625V5.4248C16.0372 5.4248 1.99414 5.4248 1.83789 5.4248V4.03305Z" fill="black"/>
</svg>
