<svg width="28" height="28" viewBox="0 0 28 28" fill="none" xmlns="http://www.w3.org/2000/svg">
<g clip-path="url(#clip0)">
<path d="M24.4479 11.3909C24.75 11.3909 24.9948 11.146 24.9948 10.844C24.9948 10.542 24.75 10.2971 24.4479 10.2971H22.6748C22.3728 10.2971 22.1279 10.542 22.1279 10.844V15.2191C22.1279 15.5211 22.3728 15.7659 22.6748 15.7659C22.9768 15.7659 23.2217 15.5211 23.2217 15.2191V13.537H24.3071C24.6091 13.537 24.8539 13.2921 24.8539 12.9901C24.8539 12.6881 24.6091 12.4432 24.3071 12.4432H23.2217V11.3909H24.4479V11.3909Z" fill="#799BC9"/>
<path d="M19.0408 10.297H17.8018C17.4995 10.297 17.2543 10.5425 17.2549 10.8449V10.8483V10.8485V15.1479C17.2549 15.5454 17.5223 15.7658 17.8106 15.7658H17.8127C17.8502 15.7657 18.7336 15.7623 19.0867 15.756C20.4007 15.7331 21.3544 14.5873 21.3544 13.0314C21.3544 11.3959 20.4246 10.297 19.0408 10.297ZM19.0675 14.6625C18.9039 14.6653 18.6153 14.6676 18.3556 14.6692C18.3501 12.9569 18.3533 13.5576 18.3496 11.3907H19.0408C19.9402 11.3907 20.2606 12.2382 20.2606 13.0314C20.2606 13.8329 19.8917 14.6481 19.0675 14.6625Z" fill="#799BC9"/>
<path d="M14.643 10.297H13.4248C13.1228 10.297 12.8779 10.5424 12.8779 10.8439V15.2189C12.8779 15.521 13.1228 15.7658 13.4248 15.7658C13.7268 15.7658 13.9717 15.5209 13.9717 15.2189V13.8625C14.2174 13.8612 14.488 13.8601 14.643 13.8601C15.6386 13.8601 16.4486 13.0609 16.4486 12.0786C16.4486 11.0962 15.6386 10.297 14.643 10.297ZM14.643 12.7663C14.4885 12.7663 14.2214 12.7674 13.9771 12.7687C13.9736 12.0516 13.9759 12.3307 13.9733 11.3908H14.643C15.0288 11.3908 15.3549 11.7058 15.3549 12.0785C15.3549 12.4513 15.0289 12.7663 14.643 12.7663Z" fill="#799BC9"/>
<path d="M26.2842 7.68409H23.2358V0.820312C23.2358 0.367281 22.8685 0 22.4155 0H9.55012C9.3259 0 9.11765 0.09275 8.97011 0.240242L3.75089 5.45907C3.59296 5.61706 3.5106 5.82936 3.5106 6.03914V14.1058H3.22726C2.77423 14.1058 2.407 14.4731 2.407 14.9261V20.6122H0.821229C0.132167 20.6122 -0.24988 21.4139 0.18412 21.9492L4.8447 27.6965C5.1731 28.1014 5.79112 28.1007 6.11892 27.6965L7.2031 26.3595H22.4155C22.8685 26.3595 23.2357 25.9923 23.2357 25.5392V18.4053H26.2842C27.2303 18.4053 27.9999 17.6356 27.9999 16.6895V9.39996C28 8.45381 27.2303 7.68409 26.2842 7.68409ZM8.72986 2.8006V5.21883H6.31147C6.56785 4.96245 8.47376 3.0567 8.72986 2.8006ZM2.54252 22.2528H3.22732C3.68035 22.2528 4.04757 21.8856 4.04757 21.4325V15.7465H6.91599V21.4325C6.91599 21.8856 7.28327 22.2528 7.73625 22.2528H8.42104L6.17929 25.0173C6.17924 25.0175 6.17913 25.0175 6.17907 25.0176L5.48175 25.8775L2.54252 22.2528ZM21.5952 24.7189H8.53354L10.7795 21.9492C11.2134 21.4141 10.8316 20.6122 10.1424 20.6122H8.55656V14.9262C8.55656 14.4732 8.18928 14.1059 7.7363 14.1059H5.15122V6.85951H9.55012C10.0032 6.85951 10.3704 6.49223 10.3704 6.0392V1.64062H21.5952V7.68409H11.5824C10.6363 7.68409 9.86654 8.45381 9.86654 9.39996V16.6895C9.86654 17.6356 10.6363 18.4053 11.5824 18.4053H21.5952V24.7189ZM26.3594 16.6895C26.3594 16.7309 26.3257 16.7647 26.2842 16.7647C25.8989 16.7647 12.0055 16.7647 11.5824 16.7647C11.5409 16.7647 11.5071 16.7309 11.5071 16.6895V9.39996C11.5071 9.35845 11.5409 9.32471 11.5824 9.32471H26.2842C26.3257 9.32471 26.3594 9.35845 26.3594 9.39996V16.6895Z" fill="#799BC9"/>
</g>
<defs>
<clipPath id="clip0">
<rect width="28" height="28" fill="white"/>
</clipPath>
</defs>
</svg>
