<svg width="9" height="15" viewBox="0 0 9 15" fill="none" xmlns="http://www.w3.org/2000/svg">
<path d="M4.50056 0C2.41911 0 0.71582 1.69344 0.71582 3.77495V12.2436C0.71582 13.7635 1.95724 15 3.47713 15C4.99702 15 6.23845 13.7635 6.23845 12.2436V4.84646C6.23845 3.88819 5.45883 3.10857 4.50056 3.10857C3.54229 3.10857 2.76267 3.88819 2.76267 4.84646V11.2504C2.76267 11.5703 3.02204 11.8296 3.34196 11.8296C3.66188 11.8296 3.92124 11.5703 3.92124 11.2504V4.84646C3.92124 4.52703 4.18111 4.26717 4.50053 4.26717C4.81995 4.26717 5.07982 4.52703 5.07982 4.84646V12.2436C5.07982 13.1247 4.35812 13.8414 3.4771 13.8414C2.59609 13.8414 1.87439 13.1247 1.87439 12.2436V3.77495C1.87439 2.33232 3.0579 1.1586 4.50056 1.1586C5.94322 1.1586 7.12673 2.33229 7.12673 3.77495V11.7013C7.12673 12.0212 7.38609 12.2806 7.70601 12.2806C8.02593 12.2806 8.2853 12.0212 8.2853 11.7013V3.77495C8.2853 1.69344 6.58204 0 4.50056 0Z" fill="#292929"/>
</svg>
