<svg width="12" height="12" viewBox="0 0 12 12" fill="none" xmlns="http://www.w3.org/2000/svg">
<path d="M11.8784 0.126789C11.7161 -0.0353351 11.4531 -0.0353351 11.2909 0.126789L6.0026 5.41277L0.714336 0.126789C0.554946 -0.0381903 0.291894 -0.0427581 0.126844 0.116562C-0.0382068 0.275883 -0.0427766 0.538822 0.116613 0.703801C0.119937 0.707279 0.123364 0.710653 0.126844 0.714027L5.41511 6L0.126844 11.286C-0.0382068 11.4454 -0.0427771 11.7082 0.116664 11.8732C0.276106 12.0382 0.539106 12.0428 0.704157 11.8834C0.707636 11.8801 0.711012 11.8766 0.714336 11.8732L6.0026 6.58724L11.2909 11.8732C11.4559 12.0326 11.7189 12.028 11.8784 11.863C12.0339 11.7021 12.0339 11.4469 11.8784 11.286L6.59009 6L11.8784 0.714027C12.0405 0.551851 12.0405 0.288965 11.8784 0.126789Z" fill="#799BC9"/>
</svg>
