<svg width="22" height="22" viewBox="0 0 22 22"
	xmlns="http://www.w3.org/2000/svg">
	<path d="M11 0C4.92478 0 0 4.92495 0 11C0 17.0754 4.92478 22 11 22C17.0752 22 22 17.0754 22 11C22 4.92495 17.0752 0 11 0ZM11 16.5C10.2406 16.5 9.625 15.8847 9.625 15.125C9.625 14.3657 10.2406 13.75 11 13.75C11.7594 13.75 12.375 14.3657 12.375 15.125C12.375 15.8847 11.7594 16.5 11 16.5ZM12.375 11.6875H9.625L8.9375 6.1875C8.9375 5.80783 9.24533 5.5 9.625 5.5H12.375C12.7547 5.5 13.0625 5.80783 13.0625 6.1875L12.375 11.6875Z"/>
</svg>
