<svg width="28" height="28" viewBox="0 0 28 28" xmlns="http://www.w3.org/2000/svg">
<g clip-path="url(#clip0)">
<path d="M14.041 12.5743C15.2858 12.5743 16.295 11.5652 16.295 10.3203C16.295 9.07553 15.2858 8.06641 14.041 8.06641C12.7962 8.06641 11.7871 9.07553 11.7871 10.3203C11.7871 11.5652 12.7962 12.5743 14.041 12.5743Z"/>
<path d="M14.0016 0C6.26991 0 0.00195312 6.26814 0.00195312 13.9999C0.00195312 21.7314 6.26991 28 14.0016 28C21.7333 28 28.0018 21.7314 28.0018 13.9999C28.0018 6.26814 21.7333 0 14.0016 0ZM13.9726 6.41001C13.9825 6.41001 13.9922 6.40954 14.0019 6.40908C14.0116 6.40954 14.0212 6.41001 14.0312 6.41001C16.3901 6.44725 18.3091 8.39691 18.3091 10.7564C18.3091 13.6412 15.2268 16.5623 14.0019 17.6089C13.92 17.5389 13.8293 17.46 13.7323 17.3736C13.7306 17.3721 13.7291 17.3709 13.7277 17.3695C12.3721 16.1649 9.69481 13.4453 9.69481 10.7564C9.69472 8.39691 11.6139 6.44734 13.9726 6.41001ZM14.0627 21.6769C11.4808 21.6769 8.86684 20.9362 8.86684 19.521C8.86684 18.5279 10.1539 17.8674 11.8133 17.5615C12.1343 17.8842 12.4381 18.1686 12.7047 18.4061C10.8971 18.608 9.83518 19.1802 9.83518 19.5208C9.83518 19.9393 11.4401 20.7084 14.0627 20.7084C16.6853 20.7084 18.2904 19.9393 18.2904 19.5208C18.2904 19.1732 17.1837 18.5866 15.3105 18.3959C15.5794 18.1558 15.8857 17.8687 16.2091 17.5426C17.9183 17.8402 19.2587 18.5072 19.2587 19.521C19.2587 20.9362 16.6448 21.6769 14.0627 21.6769Z"/>
</g>
<defs>
<clipPath id="clip0">
<rect width="28" height="28" fill="white"/>
</clipPath>
</defs>
</svg>
