<svg width="40" height="40" viewBox="0 0 40 40" fill="none"
	xmlns="http://www.w3.org/2000/svg">
	<g clip-path="url(#clip0)">
		<path d="M11.5595 21.5043C11.5595 21.1998 11.3127 20.953 11.0081 20.9529L6.96157 20.953C6.65708 20.953 6.41025 21.1998 6.41021 21.5043C6.41021 21.6566 6.47193 21.7944 6.57165 21.8941C6.67142 21.9939 6.80924 22.0556 6.96149 22.0556L11.0081 22.0556C11.3126 22.0557 11.5595 21.8088 11.5595 21.5043Z" fill="#292929"/>
		<path d="M12.8429 21.1144C12.3412 20.6127 11.5607 21.3915 12.0632 21.894C12.5649 22.3957 13.3454 21.6168 12.8429 21.1144Z" fill="#292929"/>
		<path d="M35.2613 23.9071L35.2613 15.6909C35.2613 15.5446 35.2033 15.4044 35.0999 15.301C34.9964 15.1976 34.8562 15.1396 34.71 15.1396L29.2879 15.1396L29.2878 15.1396C29.2878 15.1396 29.2878 15.1396 29.2877 15.1396L23.8657 15.1396C23.8657 15.1396 23.8657 15.1396 23.8656 15.1396C23.8656 15.1396 23.8655 15.1396 23.8654 15.1396H7.59863C7.59863 15.1396 7.59859 15.1396 7.59855 15.1396L4.8876 15.1395C4.74143 15.1396 4.60117 15.1977 4.49781 15.301C4.39444 15.4044 4.33636 15.5447 4.33636 15.6909L4.33636 23.9071C4.33636 24.0594 4.39808 24.1972 4.49781 24.297C4.59757 24.3967 4.73535 24.4584 4.88764 24.4584H34.71C34.8562 24.4584 34.9965 24.4003 35.0999 24.297C35.2033 24.1936 35.2613 24.0533 35.2613 23.9071ZM5.43899 23.3558L5.43899 16.2422L7.0472 16.2422L7.0472 17.6081C7.0472 17.7604 7.10891 17.8982 7.20864 17.9979C7.30841 18.0977 7.44619 18.1594 7.59848 18.1594C7.90296 18.1594 8.14979 17.9126 8.14983 17.608L8.14987 16.2422L9.75854 16.2422L9.75854 18.7335C9.75854 18.8858 9.82025 19.0236 9.91998 19.1233C10.0198 19.2231 10.1576 19.2848 10.3098 19.2848C10.6143 19.2848 10.8611 19.038 10.8611 18.7335L10.8611 16.2421H12.4697L12.4697 17.608C12.4697 17.7603 12.5314 17.8981 12.6312 17.9979C12.7309 18.0976 12.8687 18.1593 13.021 18.1593C13.3255 18.1593 13.5723 17.9125 13.5724 17.608L13.5724 16.2421L15.1806 16.2421L15.1806 18.7338C15.1806 18.886 15.2423 19.0239 15.342 19.1236C15.4418 19.2233 15.5797 19.285 15.7319 19.285C16.0364 19.285 16.2832 19.0382 16.2832 18.7337L16.2832 16.242L17.8916 16.242L17.8918 17.6076C17.8918 17.7598 17.9536 17.8976 18.0533 17.9973C18.1531 18.0971 18.2909 18.1588 18.4432 18.1587C18.7477 18.1587 18.9945 17.9118 18.9944 17.6073L18.9941 16.2419L20.603 16.2419V18.7336C20.603 18.8859 20.6647 19.0237 20.7645 19.1235C20.8642 19.2232 21.002 19.285 21.1543 19.2849C21.4588 19.2849 21.7056 19.0381 21.7056 18.7336V16.2418L23.3138 16.2418V17.6077C23.3138 17.76 23.3756 17.8978 23.4753 17.9976C23.575 18.0973 23.7129 18.159 23.8651 18.159C24.1696 18.159 24.4164 17.9122 24.4164 17.6077L24.4167 16.2421L26.025 16.2421L26.025 18.7338C26.025 18.886 26.0867 19.0239 26.1864 19.1236C26.2862 19.2233 26.424 19.285 26.5762 19.285C26.8807 19.285 27.1275 19.0382 27.1275 18.7337L27.1276 16.2419H28.7362L28.7362 17.6075C28.7362 17.7597 28.7979 17.8976 28.8976 17.9973C28.9974 18.097 29.1352 18.1587 29.2875 18.1587C29.5919 18.1587 29.8388 17.9119 29.8388 17.6074L29.8389 16.2419L31.4476 16.2419L31.4476 18.7337C31.4476 18.886 31.5093 19.0238 31.609 19.1235C31.7087 19.2232 31.8466 19.285 31.9988 19.2849C32.3033 19.285 32.5502 19.0381 32.5502 18.7336L32.5504 16.2422L34.1586 16.2422L34.1586 23.3557L5.43899 23.3558Z" fill="#292929"/>
	</g>
	<defs>
		<clipPath id="clip0">
			<rect width="28" height="28" fill="white" transform="translate(19.7988) rotate(45)"/>
		</clipPath>
	</defs>
</svg>
