<svg width="20" height="20" viewBox="0 0 20 20"
	xmlns="http://www.w3.org/2000/svg">
	<path d="M16.1558 6.49167C16.0973 6.3965 16.0586 6.29054 16.0418 6.18008C16.0251 6.06963 16.0307 5.95694 16.0584 5.84871C16.0861 5.74048 16.1353 5.63893 16.203 5.55008C16.2707 5.46123 16.3556 5.3869 16.4526 5.33152C16.5496 5.27614 16.6568 5.24082 16.7677 5.22769C16.8787 5.21455 16.9911 5.22385 17.0984 5.25503C17.2057 5.28622 17.3056 5.33866 17.3922 5.40923C17.4788 5.4798 17.5503 5.56707 17.6025 5.66583C18.3565 6.98571 18.7521 8.47991 18.75 10C18.75 14.8325 14.8325 18.75 10 18.75C5.1675 18.75 1.25 14.8325 1.25 10C1.25 5.1675 5.1675 1.25 10 1.25C11.545 1.25 13.0333 1.65167 14.3458 2.40417C14.4432 2.45728 14.529 2.52928 14.5981 2.61597C14.6673 2.70265 14.7185 2.80227 14.7486 2.90898C14.7788 3.01569 14.7874 3.12736 14.7738 3.23743C14.7603 3.34749 14.7249 3.45375 14.6698 3.54998C14.6147 3.6462 14.5409 3.73045 14.4528 3.7978C14.3647 3.86514 14.264 3.91423 14.1567 3.94217C14.0494 3.97011 13.9376 3.97635 13.8278 3.96052C13.7181 3.9447 13.6126 3.90712 13.5175 3.85C12.4469 3.23627 11.234 2.91442 10 2.91667C8.59905 2.91667 7.22956 3.3321 6.06471 4.11042C4.89986 4.88875 3.99197 5.99502 3.45585 7.28933C2.91973 8.58364 2.77946 10.0079 3.05277 11.3819C3.32608 12.7559 4.00071 14.0181 4.99133 15.0087C5.98195 15.9993 7.24408 16.6739 8.61811 16.9472C9.99214 17.2205 11.4164 17.0803 12.7107 16.5441C14.005 16.008 15.1112 15.1001 15.8896 13.9353C16.6679 12.7704 17.0833 11.401 17.0833 10C17.0857 8.76964 16.766 7.56008 16.1558 6.49167ZM7.5 14.1667C7.27899 14.1667 7.06702 14.0789 6.91074 13.9226C6.75446 13.7663 6.66667 13.5543 6.66667 13.3333V6.66667C6.66667 6.44565 6.75446 6.23369 6.91074 6.07741C7.06702 5.92113 7.27899 5.83333 7.5 5.83333H12.5C12.721 5.83333 12.933 5.92113 13.0893 6.07741C13.2455 6.23369 13.3333 6.44565 13.3333 6.66667C13.3333 6.88768 13.2455 7.09964 13.0893 7.25592C12.933 7.4122 12.721 7.5 12.5 7.5H8.33333V9.16667H11.6667C12.3297 9.16667 12.9656 9.43006 13.4344 9.8989C13.9033 10.3677 14.1667 11.0036 14.1667 11.6667C14.1667 12.3297 13.9033 12.9656 13.4344 13.4344C12.9656 13.9033 12.3297 14.1667 11.6667 14.1667H7.5ZM8.33333 10.8333V12.5H11.6667C11.8877 12.5 12.0996 12.4122 12.2559 12.2559C12.4122 12.0996 12.5 11.8877 12.5 11.6667C12.5 11.4457 12.4122 11.2337 12.2559 11.0774C12.0996 10.9211 11.8877 10.8333 11.6667 10.8333H8.33333Z"/>
</svg>
