<?xml version="1.0" standalone="no"?>
<!DOCTYPE svg PUBLIC "-//W3C//DTD SVG 20010904//EN"
 "http://www.w3.org/TR/2001/REC-SVG-20010904/DTD/svg10.dtd">
<svg version="1.0" xmlns="http://www.w3.org/2000/svg"
 width="30.000000pt" height="30.000000pt" viewBox="0 0 30.000000 30.000000"
 preserveAspectRatio="xMidYMid meet">

<g transform="translate(0.000000,30.000000) scale(0.100000,-0.100000)"
fill="#000000" stroke="none">
<path d="M75 291 c-35 -16 -67 -58 -71 -98 -6 -50 24 -99 74 -120 34 -14 41
-14 82 0 l45 16 50 -47 50 -47 -48 51 -48 50 17 39 c19 47 8 98 -30 134 -26
25 -89 36 -121 22z m111 -25 c32 -22 47 -80 30 -120 -27 -63 -84 -87 -142 -60
-58 28 -78 87 -49 144 30 57 103 73 161 36z"/>
</g>
</svg>
