<svg width="18" height="18" viewBox="0 0 18 18" fill="none" xmlns="http://www.w3.org/2000/svg">
<path d="M14.4258 5.625C12.8756 5.625 11.6133 4.36349 11.6133 2.8125C11.6133 1.26151 12.8756 0 14.4258 0C15.9761 0 17.2383 1.26151 17.2383 2.8125C17.2383 4.36349 15.9761 5.625 14.4258 5.625ZM14.4258 1.125C13.4958 1.125 12.7383 1.88168 12.7383 2.8125C12.7383 3.74332 13.4958 4.5 14.4258 4.5C15.3558 4.5 16.1133 3.74332 16.1133 2.8125C16.1133 1.88168 15.3558 1.125 14.4258 1.125Z" fill="#799BC9"/>
<path d="M14.4258 18C12.8756 18 11.6133 16.7385 11.6133 15.1875C11.6133 13.6365 12.8756 12.375 14.4258 12.375C15.9761 12.375 17.2383 13.6365 17.2383 15.1875C17.2383 16.7385 15.9761 18 14.4258 18ZM14.4258 13.5C13.4958 13.5 12.7383 14.2567 12.7383 15.1875C12.7383 16.1183 13.4958 16.875 14.4258 16.875C15.3558 16.875 16.1133 16.1183 16.1133 15.1875C16.1133 14.2567 15.3558 13.5 14.4258 13.5Z" fill="#799BC9"/>
<path d="M3.55078 11.8125C2.00047 11.8125 0.738281 10.551 0.738281 9C0.738281 7.44901 2.00047 6.1875 3.55078 6.1875C5.10109 6.1875 6.36328 7.44901 6.36328 9C6.36328 10.551 5.10109 11.8125 3.55078 11.8125ZM3.55078 7.3125C2.62079 7.3125 1.86328 8.06918 1.86328 9C1.86328 9.93082 2.62079 10.6875 3.55078 10.6875C4.48077 10.6875 5.23828 9.93082 5.23828 9C5.23828 8.06918 4.48077 7.3125 3.55078 7.3125Z" fill="#799BC9"/>
<path d="M5.50927 8.45236C5.31344 8.45236 5.12297 8.35033 5.02024 8.16892C4.86644 7.89893 4.96023 7.55533 5.23022 7.40166L12.1895 3.43408C12.4587 3.2789 12.803 3.37338 12.9559 3.6442C13.1097 3.91419 13.016 4.25765 12.746 4.41146L5.78668 8.37889C5.69892 8.42833 5.60376 8.45236 5.50927 8.45236Z" fill="#799BC9"/>
<path d="M12.4675 14.64C12.373 14.64 12.2777 14.616 12.1899 14.5658L5.23065 10.5983C4.96066 10.4446 4.867 10.101 5.02067 9.83102C5.17366 9.56034 5.51725 9.46654 5.78724 9.62104L12.7464 13.5885C13.0164 13.7423 13.1102 14.0857 12.9565 14.3557C12.853 14.538 12.6625 14.64 12.4675 14.64Z" fill="#799BC9"/>
</svg>
