<svg width="30" height="30" viewBox="0 0 30 30" fill="none" xmlns="http://www.w3.org/2000/svg">
<path d="M26.6222 9.39912L25.0968 6.8567C25.005 6.70341 24.8395 6.60986 24.6608 6.60986H5.33872C5.15996 6.60986 4.99445 6.70341 4.90269 6.8567L3.37727 9.39912C3.28297 9.55643 3.28074 9.75202 3.37086 9.91141C3.46099 10.0708 3.62992 10.1694 3.8133 10.1694H26.1862C26.3696 10.1694 26.5383 10.0708 26.6286 9.91141C26.7189 9.75202 26.7165 9.55628 26.6222 9.39912ZM4.71127 9.15258L5.62682 7.62716H24.373L25.2882 9.15258H4.71127Z" fill="#292929"/>
<path d="M26.6944 9.63494C26.6804 9.36472 26.4573 9.15259 26.1864 9.15259H3.81355C3.54273 9.15259 3.31957 9.36457 3.30557 9.63494L2.28857 29.4654C2.28142 29.6046 2.33177 29.7407 2.42771 29.8417C2.52379 29.9426 2.65697 29.9999 2.7964 29.9999H27.2031C27.3424 29.9999 27.4757 29.9427 27.5723 29.8417C27.6681 29.7407 27.7184 29.6047 27.7114 29.4654L26.6944 9.63494ZM3.33149 28.9829L4.29635 10.1694H25.703L26.6679 28.9829H3.33149Z" fill="#292929"/>
<path d="M18.8133 11.1863C17.9721 11.1863 17.2879 11.8705 17.2879 12.7117C17.2879 13.5529 17.9721 14.2371 18.8133 14.2371C19.6545 14.2371 20.3388 13.5529 20.3388 12.7117C20.3388 11.8705 19.6545 11.1863 18.8133 11.1863ZM18.8133 13.2203C18.5328 13.2203 18.3049 12.9922 18.3049 12.7118C18.3049 12.4315 18.533 12.2034 18.8133 12.2034C19.0937 12.2034 19.3218 12.4315 19.3218 12.7118C19.3218 12.9922 19.0937 13.2203 18.8133 13.2203Z" fill="#292929"/>
<path d="M11.1862 11.1863C10.345 11.1863 9.66077 11.8705 9.66077 12.7117C9.66077 13.5529 10.345 14.2371 11.1862 14.2371C12.0274 14.2371 12.7116 13.5529 12.7116 12.7117C12.7116 11.8705 12.0274 11.1863 11.1862 11.1863ZM11.1862 13.2203C10.9058 13.2203 10.6778 12.9922 10.6778 12.7118C10.6778 12.4315 10.9058 12.2034 11.1862 12.2034C11.4665 12.2034 11.6946 12.4315 11.6946 12.7118C11.6946 12.9922 11.4665 13.2203 11.1862 13.2203Z" fill="#292929"/>
<path d="M14.9998 0C12.6165 0 10.6777 1.9388 10.6777 4.32198V7.11853C10.6777 7.39918 10.9054 7.62695 11.1861 7.62695H18.8132C19.0939 7.62695 19.3216 7.39918 19.3216 7.11853V4.32198C19.3218 1.9388 17.383 0 14.9998 0ZM18.3048 6.61011H11.6947V4.32198C11.6947 2.49966 13.1773 1.01685 14.9998 1.01685C16.8223 1.01685 18.3049 2.49951 18.3049 4.32198V6.61011H18.3048Z" fill="#292929"/>
<path d="M18.8134 12.7117H18.7742C18.4936 12.7117 18.2658 12.9394 18.2658 13.2201C18.2658 13.2895 18.2795 13.3558 18.305 13.4161V16.0166C18.305 17.839 16.8223 19.3218 14.9998 19.3218C13.1774 19.3218 11.6947 17.8391 11.6947 16.0166V13.2202C11.6947 12.9396 11.4669 12.7118 11.1863 12.7118C10.9056 12.7118 10.6779 12.9396 10.6779 13.2202V16.0168C10.6779 18.4 12.6167 20.3388 14.9998 20.3388C17.383 20.3388 19.3218 18.4 19.3218 16.0168V13.2202C19.3218 12.9396 19.094 12.7117 18.8134 12.7117Z" fill="#292929"/>
</svg>
