<svg width="26" height="26" viewBox="0 0 26 26" fill="none"
	xmlns="http://www.w3.org/2000/svg">
	<path d="M23.0726 8.14587L21.7506 5.94244C21.6711 5.80959 21.5276 5.72852 21.3727 5.72852H4.62692C4.472 5.72852 4.32856 5.80959 4.24904 5.94244L2.927 8.14587C2.84528 8.2822 2.84334 8.45172 2.92145 8.58986C2.99956 8.728 3.14596 8.81347 3.30489 8.81347H22.6947C22.8537 8.81347 22.9999 8.728 23.0782 8.58986C23.1564 8.45172 23.1543 8.28207 23.0726 8.14587ZM4.08314 7.9322L4.87661 6.61017H21.1233L21.9165 7.9322H4.08314Z" fill="white"/>
	<path d="M23.1352 8.35029C23.1231 8.1161 22.9297 7.93225 22.695 7.93225H3.30514C3.07042 7.93225 2.87702 8.11597 2.86489 8.35029L1.98349 25.5367C1.97729 25.6573 2.02093 25.7753 2.10407 25.8628C2.18735 25.9502 2.30277 25.9999 2.42361 25.9999H23.5761C23.6968 25.9999 23.8124 25.9504 23.896 25.8628C23.9791 25.7753 24.0227 25.6574 24.0166 25.5367L23.1352 8.35029ZM2.88735 25.1185L3.72356 8.81352H22.276L23.1122 25.1185H2.88735Z" fill="white"/>
	<path d="M16.3049 9.69482C15.5759 9.69482 14.9829 10.2878 14.9829 11.0169C14.9829 11.7459 15.5759 12.3389 16.3049 12.3389C17.034 12.3389 17.627 11.7459 17.627 11.0169C17.627 10.2878 17.034 9.69482 16.3049 9.69482ZM16.3049 11.4576C16.0618 11.4576 15.8643 11.26 15.8643 11.017C15.8643 10.774 16.062 10.5763 16.3049 10.5763C16.5479 10.5763 16.7456 10.774 16.7456 11.017C16.7456 11.26 16.5479 11.4576 16.3049 11.4576Z" fill="white"/>
	<path d="M9.69459 9.69482C8.96554 9.69482 8.37256 10.2878 8.37256 11.0169C8.37256 11.7459 8.96554 12.3389 9.69459 12.3389C10.4236 12.3389 11.0166 11.7459 11.0166 11.0169C11.0166 10.2878 10.4236 9.69482 9.69459 9.69482ZM9.69459 11.4576C9.45162 11.4576 9.25396 11.26 9.25396 11.017C9.25396 10.774 9.45162 10.5763 9.69459 10.5763C9.93757 10.5763 10.1352 10.774 10.1352 11.017C10.1352 11.26 9.93757 11.4576 9.69459 11.4576Z" fill="white"/>
	<path d="M12.9997 0C10.9342 0 9.25391 1.6803 9.25391 3.74571V6.16939C9.25391 6.41263 9.45131 6.61003 9.69454 6.61003H16.3047C16.5479 6.61003 16.7453 6.41263 16.7453 6.16939V3.74571C16.7455 1.6803 15.0652 0 12.9997 0ZM15.8641 5.72876H10.1353V3.74571C10.1353 2.16638 11.4203 0.881268 12.9997 0.881268C14.5792 0.881268 15.8642 2.16625 15.8642 3.74571V5.72876H15.8641Z" fill="white"/>
	<path d="M16.3047 11.0168H16.2707C16.0275 11.0168 15.8301 11.2142 15.8301 11.4575C15.8301 11.5176 15.842 11.5751 15.8641 11.6274V13.8812C15.8641 15.4605 14.5791 16.7456 12.9996 16.7456C11.4202 16.7456 10.1352 15.4606 10.1352 13.8812V11.4576C10.1352 11.2144 9.93777 11.017 9.69454 11.017C9.45131 11.017 9.25391 11.2144 9.25391 11.4576V13.8813C9.25391 15.9467 10.9342 17.627 12.9996 17.627C15.065 17.627 16.7453 15.9467 16.7453 13.8813V11.4576C16.7453 11.2144 16.5479 11.0168 16.3047 11.0168Z" fill="white"/>
</svg>
