<svg width="18" height="18" viewBox="0 0 18 18" fill="none" xmlns="http://www.w3.org/2000/svg">
<path d="M17.9742 6.93516C17.9121 6.74423 17.7472 6.60508 17.5485 6.57625L11.9684 5.76538L9.47288 0.708979C9.38408 0.52898 9.20074 0.415039 9.00003 0.415039C8.79929 0.415039 8.61599 0.52898 8.52715 0.708979L6.03148 5.76538L0.451505 6.57625C0.252908 6.60508 0.0878505 6.74423 0.0258351 6.93513C-0.0362154 7.12606 0.0155344 7.33563 0.159288 7.47572L4.1969 11.4116L3.24389 16.9692C3.20992 17.167 3.29128 17.3669 3.45366 17.4849C3.54552 17.5517 3.65433 17.5856 3.76367 17.5856C3.84762 17.5856 3.93186 17.5656 4.00899 17.5251L9 14.9011L13.9908 17.525C14.1685 17.6184 14.3838 17.6029 14.5462 17.4849C14.7085 17.3669 14.7899 17.167 14.756 16.9691L13.8027 11.4116L17.8407 7.47569C17.9845 7.33562 18.0362 7.12606 17.9742 6.93516Z" fill="#799BC9"/>
</svg>
