<svg width="20" height="20" viewBox="0 0 20 20" fill="none" xmlns="http://www.w3.org/2000/svg">
<path d="M19.9713 7.70553C19.9024 7.49338 19.719 7.33881 19.4983 7.30674L13.2983 6.40577L10.5254 0.787538C10.4267 0.587539 10.2231 0.460938 10 0.460938C9.77701 0.460938 9.5733 0.587578 9.47459 0.787538L6.70162 6.40581L0.501674 7.30674C0.280972 7.33881 0.0976127 7.49342 0.0287066 7.70553C-0.0402386 7.91764 0.0172613 8.15049 0.176948 8.30616L4.66319 12.6794L3.60429 18.8545C3.56659 19.0743 3.65698 19.2965 3.83741 19.4275C4.0178 19.5586 4.25694 19.5759 4.45448 19.4722L9.99998 16.5567L15.5453 19.4722C15.6311 19.5173 15.7247 19.5395 15.8179 19.5395C15.9394 19.5395 16.0604 19.5018 16.1624 19.4276C16.3428 19.2965 16.4332 19.0743 16.3955 18.8545L15.3363 12.6794L19.823 8.3062C19.9827 8.15049 20.0402 7.91764 19.9713 7.70553ZM14.2977 12.0552C14.1596 12.1898 14.0966 12.3838 14.1292 12.5739L15.0398 17.8824L10.2727 15.3761C10.102 15.2863 9.89806 15.2863 9.72736 15.3761L4.95999 17.8824L5.8703 12.5738C5.90287 12.3838 5.83987 12.1899 5.70182 12.0553L1.84515 8.29573L7.17502 7.52116C7.36588 7.49342 7.5308 7.37358 7.61619 7.20065L9.99998 2.37074L12.3837 7.20061C12.4691 7.37354 12.634 7.49342 12.8249 7.52116L18.1548 8.29569L14.2977 12.0552Z" fill="#799BC9"/>
</svg>
