<svg width="28" height="28" viewBox="0 0 28 28" fill="none" xmlns="http://www.w3.org/2000/svg">
<path d="M14 28C21.732 28 28 21.732 28 14C28 6.26801 21.732 0 14 0C6.26801 0 0 6.26801 0 14C0 21.732 6.26801 28 14 28Z" fill="#039BE5"/>
<path d="M6.40641 13.6967L19.9047 8.49216C20.5312 8.26583 21.0784 8.645 20.8754 9.59233L20.8766 9.59116L18.5782 20.419C18.4079 21.1867 17.9517 21.3733 17.3136 21.0117L13.8136 18.4322L12.1254 20.0585C11.9387 20.2452 11.7812 20.4027 11.4196 20.4027L11.6681 16.8408L18.1547 10.9807C18.4371 10.7322 18.0917 10.5922 17.7196 10.8395L9.70341 15.8865L6.24775 14.8085C5.49758 14.5705 5.48125 14.0583 6.40641 13.6967Z" fill="white"/>
</svg>
