<svg width="28" height="28" viewBox="0 0 28 28" fill="none" xmlns="http://www.w3.org/2000/svg">
<path d="M14.0035 0H13.9965C6.27725 0 0 6.279 0 14C0 17.0625 0.987 19.901 2.66525 22.2057L0.9205 27.4067L6.30175 25.6865C8.5155 27.153 11.1562 28 14.0035 28C21.7227 28 28 21.7192 28 14C28 6.28075 21.7227 0 14.0035 0Z" fill="#4CAF50"/>
<path d="M22.1501 19.7698C21.8123 20.7236 20.4718 21.5146 19.4026 21.7456C18.6711 21.9013 17.7156 22.0256 14.4991 20.6921C10.3848 18.9876 7.73533 14.8068 7.52883 14.5356C7.33108 14.2643 5.86633 12.3218 5.86633 10.3128C5.86633 8.30382 6.88658 7.32557 7.29783 6.90557C7.63558 6.56082 8.19383 6.40332 8.72933 6.40332C8.90258 6.40332 9.05833 6.41207 9.19833 6.41907C9.60958 6.43657 9.81608 6.46107 10.0873 7.11032C10.4251 7.92407 11.2476 9.93307 11.3456 10.1396C11.4453 10.3461 11.5451 10.6261 11.4051 10.8973C11.2738 11.1773 11.1583 11.3016 10.9518 11.5396C10.7453 11.7776 10.5493 11.9596 10.3428 12.2151C10.1538 12.4373 9.94033 12.6753 10.1783 13.0866C10.4163 13.4891 11.2388 14.8313 12.4498 15.9093C14.0126 17.3006 15.2796 17.7451 15.7328 17.9341C16.0706 18.0741 16.4731 18.0408 16.7198 17.7783C17.0331 17.4406 17.4198 16.8806 17.8136 16.3293C18.0936 15.9338 18.4471 15.8848 18.8181 16.0248C19.1961 16.1561 21.1963 17.1448 21.6076 17.3496C22.0188 17.5561 22.2901 17.6541 22.3898 17.8273C22.4878 18.0006 22.4878 18.8143 22.1501 19.7698Z" fill="#FAFAFA"/>
</svg>
