<svg width="30" height="30" viewBox="0 0 30 30" fill="none" xmlns="http://www.w3.org/2000/svg">
<g clip-path="url(#clip0)">
<path d="M25.1251 26.5464V29.5C25.1251 29.7761 24.9012 30 24.6251 30C24.349 30 24.1251 29.7761 24.1251 29.5V26.5464C24.1251 24.2468 22.2641 22.3857 19.9643 22.3857C18.8761 22.3857 17.8888 21.8314 17.3231 20.9028C17.1795 20.6669 17.2542 20.3593 17.49 20.2156C17.7258 20.0719 18.0335 20.1467 18.1771 20.3825C18.5598 21.0107 19.2279 21.3857 19.9643 21.3857C22.8166 21.3857 25.1251 23.6938 25.1251 26.5464ZM16.7832 22.6747L15.0001 24.0551L11.9683 21.7079C12.6228 21.1822 13.0459 20.4176 13.1145 19.5492C13.7128 19.7253 14.3456 19.8202 15.0001 19.8202C18.6876 19.8202 21.6876 16.8202 21.6876 13.1327C21.6876 13.0939 21.6885 9.632 21.686 9.59325C21.669 9.32275 21.4435 9.12494 21.1876 9.12494C21.102 9.12494 20.486 9.24681 19.8829 8.884C18.9424 8.31819 18.9376 7.07794 18.9376 7.0655C18.9401 6.65925 18.4807 6.4195 18.1488 6.65431C16.0893 8.11225 13.6778 9.10087 11.0592 9.46744C10.7858 9.50575 10.5951 9.75844 10.6334 10.0319C10.6684 10.2819 10.8825 10.4627 11.1279 10.4627C11.2067 10.4627 12.8279 10.2643 14.6709 9.59488C15.8583 9.16363 16.996 8.60087 18.0626 7.91781C18.4312 9.30069 19.4648 10.07 20.6877 10.1394V13.1327C20.6877 16.2689 18.1363 18.8202 15.0002 18.8202C11.8641 18.8202 9.3127 16.2689 9.3127 13.1327V9.625C9.3127 9.34888 9.08882 9.125 8.8127 9.125C8.53657 9.125 8.3127 9.34888 8.3127 9.625V13.1328C8.3127 15.7917 9.87258 18.0929 12.1252 19.17V19.3019C12.1252 20.4544 11.1912 21.3857 10.036 21.3857C9.40345 21.3857 8.7802 21.5001 8.19064 21.7255L7.86782 21.4686C5.33464 19.4524 4.8602 15.8931 6.58776 13.2999C7.32401 12.1947 7.7502 10.8729 7.7502 9.45856V6.75025C7.7502 3.57956 10.3296 1 13.5002 1H16.5002C19.6708 1 22.2502 3.57944 22.2502 6.75V9.45831C22.2502 10.834 22.6503 12.1596 23.4071 13.2918C24.7914 15.3625 24.7886 18.0802 23.3583 20.1557C23.2016 20.3831 23.2589 20.6944 23.4863 20.8511C23.7136 21.0078 24.025 20.9505 24.1816 20.7231C25.8467 18.3072 25.8486 15.1447 24.2385 12.7361C23.5919 11.7689 23.2501 10.6355 23.2501 9.45831V6.75C23.2501 3.02806 20.2221 0 16.5001 0H13.5001C9.7782 0 6.75014 3.02819 6.75014 6.75025V9.45831C6.75014 10.6321 6.4062 11.7687 5.75539 12.7456C3.73945 15.772 4.31076 19.888 7.21332 22.2251C5.78745 23.1604 4.87514 24.7489 4.87514 26.5464V29.5C4.87514 29.7761 5.09901 30 5.37514 30C5.65126 30 5.87514 29.7761 5.87514 29.5V26.5464C5.87514 24.2467 7.73607 22.3857 10.0359 22.3857C10.3673 22.3857 10.6947 22.3332 11.0086 22.2296L14.694 25.0828C14.8743 25.2223 15.126 25.2223 15.3062 25.0828L17.3954 23.4654C17.6138 23.2963 17.6537 22.9823 17.4846 22.7639C17.3156 22.5457 17.0016 22.5056 16.7832 22.6747Z" fill="#292929"/>
</g>
<defs>
<clipPath id="clip0">
<rect width="30" height="30" fill="white"/>
</clipPath>
</defs>
</svg>
