<?xml version="1.0" encoding="utf-8"?><svg viewBox="0 0 40 40" xmlns="http://www.w3.org/2000/svg" xmlns:xlink="http://www.w3.org/1999/xlink"><style>:root>svg{display:none}:root>svg:target{display:block}</style><svg fill="none" viewBox="0 0 8 12" id="br-vector" xmlns="http://www.w3.org/2000/svg"><path d="M.887.16a.545.545 0 000 .771L5.956 6 .887 11.069a.545.545 0 00.771.771l5.455-5.454a.545.545 0 000-.772L1.658.16a.545.545 0 00-.771 0z" fill="#292929"/></svg><svg fill="none" viewBox="0 0 21 20" id="close" xmlns="http://www.w3.org/2000/svg"><path stroke="#989898" d="M1.354.646l19 19M1.302 19.646l19-19"/></svg><svg fill="none" viewBox="0 0 28 28" id="download-pdf" xmlns="http://www.w3.org/2000/svg"><g clip-path="url(#cclip0)" fill="#799BC9"><path d="M24.448 11.39a.547.547 0 100-1.093h-1.773a.547.547 0 00-.547.547v4.375a.547.547 0 001.094 0v-1.682h1.085a.547.547 0 000-1.094h-1.085v-1.052h1.226zM19.04 10.297h-1.238a.547.547 0 00-.547.548v4.303c0 .397.267.618.556.618h.002c.037 0 .92-.004 1.274-.01 1.314-.023 2.267-1.169 2.267-2.725 0-1.635-.93-2.734-2.313-2.734zm.027 4.365c-.163.003-.452.006-.711.007-.006-1.712-.003-1.111-.006-3.278h.69c.9 0 1.22.847 1.22 1.64 0 .802-.368 1.617-1.193 1.631zM14.643 10.297h-1.218a.547.547 0 00-.547.547v4.375a.547.547 0 101.094 0v-1.356l.671-.003c.996 0 1.806-.8 1.806-1.781 0-.983-.81-1.782-1.806-1.782zm0 2.47c-.155 0-.422 0-.666.002l-.004-1.378h.67c.386 0 .712.315.712.688 0 .372-.326.687-.712.687z"/><path d="M26.284 7.684h-3.048V.82a.82.82 0 00-.82-.82H9.55a.824.824 0 00-.58.24L3.75 5.46a.824.824 0 00-.24.58v8.066h-.283a.82.82 0 00-.82.82v5.686H.821a.821.821 0 00-.637 1.337l4.66 5.747a.82.82 0 001.275 0l1.084-1.337h15.213a.82.82 0 00.82-.82v-7.134h3.048c.946 0 1.716-.77 1.716-1.716V9.4c0-.946-.77-1.716-1.716-1.716zM8.73 2.801v2.418H6.31L8.73 2.8zM2.543 22.253h.684a.82.82 0 00.82-.82v-5.687h2.869v5.687c0 .453.367.82.82.82h.685l-2.242 2.764-.697.86-2.94-3.624zm19.052 2.466H8.534l2.245-2.77a.821.821 0 00-.637-1.337H8.557v-5.686a.82.82 0 00-.82-.82H5.15V6.86h4.4a.82.82 0 00.82-.82v-4.4h11.224v6.044H11.582c-.946 0-1.715.77-1.715 1.716v7.29c0 .946.77 1.715 1.715 1.715h10.013v6.314zm4.764-8.03a.075.075 0 01-.075.076H11.582a.075.075 0 01-.075-.076V9.4c0-.042.034-.075.075-.075h14.702c.042 0 .075.033.075.075v7.29z"/></g><defs><clipPath id="cclip0"><path fill="#fff" d="M0 0h28v28H0z"/></clipPath></defs></svg><svg fill="none" viewBox="0 0 9 15" id="file" xmlns="http://www.w3.org/2000/svg"><path d="M4.5 0C2.42 0 .717 1.693.717 3.775v8.469A2.764 2.764 0 003.477 15a2.764 2.764 0 002.761-2.756V4.846A1.74 1.74 0 004.501 3.11a1.74 1.74 0 00-1.738 1.737v6.404a.58.58 0 001.158 0V4.846a.58.58 0 011.159 0v7.398a1.604 1.604 0 01-3.206 0V3.775a2.628 2.628 0 012.627-2.616 2.628 2.628 0 012.626 2.616v7.926a.58.58 0 001.158 0V3.775C8.285 1.693 6.582 0 4.501 0z" fill="#292929"/></svg><svg fill="none" viewBox="0 0 12 12" id="filter-clear" xmlns="http://www.w3.org/2000/svg"><path d="M11.878.127a.416.416 0 00-.587 0L6.003 5.413.714.127a.416.416 0 10-.587.587L5.415 6 .127 11.286a.415.415 0 10.577.597l.01-.01 5.289-5.286 5.288 5.286a.416.416 0 00.587-.587L6.59 6 11.878.714a.415.415 0 000-.587z" fill="#799BC9"/></svg><svg viewBox="0 0 30 30" id="heart" xmlns="http://www.w3.org/2000/svg"><path d="M21.75 1.25A8.265 8.265 0 0015 4.764 8.265 8.265 0 008.25 1.25C3.855 1.25 0 5.34 0 10c0 4.543 2.565 9.22 7.418 13.53a39.907 39.907 0 007.353 5.164.501.501 0 00.458 0 39.905 39.905 0 007.35-5.164C27.436 19.22 30 14.542 30 10c0-4.66-3.855-8.75-8.25-8.75zM15 27.681C13.164 26.668 1 19.588 1 10c0-4.128 3.387-7.75 7.25-7.75a7.265 7.265 0 016.315 3.696.52.52 0 00.87 0A7.265 7.265 0 0121.75 2.25C25.613 2.25 29 5.872 29 10c0 9.588-12.164 16.668-14 17.681z"/></svg><svg fill="none" viewBox="0 0 30 30" id="phone" xmlns="http://www.w3.org/2000/svg"><path d="M25.605 4.391c-5.86-5.857-15.357-5.855-21.214.004-5.857 5.858-5.855 15.356.004 21.213 5.858 5.857 15.356 5.855 21.213-.003a15 15 0 00-.003-21.214zm-2.888 16.503l-.002.002v-.005l-.76.755a4 4 0 01-3.775 1.08 13.291 13.291 0 01-3.86-1.73 17.835 17.835 0 01-3.045-2.455A17.969 17.969 0 019 15.781a13.997 13.997 0 01-1.71-3.46 4 4 0 011-4.085l.89-.89a.635.635 0 01.898-.002l.002.002 2.81 2.81a.635.635 0 010 .9l-1.65 1.65a1.345 1.345 0 00-.14 1.75c.596.82 1.257 1.59 1.975 2.305.8.804 1.67 1.535 2.6 2.185a1.355 1.355 0 001.73-.15L19 17.176a.635.635 0 01.898-.002c0 .001 0 .002.002.002l2.815 2.82c.248.248.25.65.002.898z" fill="#799BC9"/></svg><svg fill="none" viewBox="0 0 14 14" id="plus" xmlns="http://www.w3.org/2000/svg"><path d="M13.453 6.453H7.547V.547a.547.547 0 10-1.094 0v5.906H.547a.547.547 0 100 1.094h5.906v5.906a.547.547 0 101.094 0V7.547h5.906a.547.547 0 100-1.094z" fill="#799BC9"/></svg><svg fill="none" viewBox="0 0 40 40" id="ruler" xmlns="http://www.w3.org/2000/svg"><g clip-path="url(#iclip0)" fill="#292929"><path d="M11.56 21.504a.551.551 0 00-.552-.551H6.962a.551.551 0 000 1.103h4.046a.551.551 0 00.552-.552zM12.843 21.114c-.502-.501-1.282.277-.78.78.502.502 1.282-.277.78-.78z"/><path d="M35.261 23.907v-8.216a.551.551 0 00-.551-.551H4.888a.552.552 0 00-.552.55v8.217a.55.55 0 00.552.551H34.71a.552.552 0 00.551-.55zM5.44 23.356v-7.114h1.608v1.366a.55.55 0 00.551.551.551.551 0 00.552-.551v-1.366h1.609v2.491a.55.55 0 00.55.552.551.551 0 00.552-.552v-2.49h1.609v1.365a.55.55 0 00.551.551.551.551 0 00.551-.551v-1.366h1.609v2.492a.55.55 0 00.55.551.551.551 0 00.552-.551v-2.492h1.609v1.366a.55.55 0 00.551.55.551.551 0 00.551-.55v-1.366h1.609v2.492a.55.55 0 00.551.55.551.551 0 00.552-.55v-2.492h1.608v1.366a.55.55 0 00.551.551.551.551 0 00.551-.551v-1.366h1.609v2.492a.55.55 0 00.551.551.551.551 0 00.552-.551v-2.492h1.608v1.366a.55.55 0 00.552.55.551.551 0 00.55-.55v-1.366h1.61v2.492a.55.55 0 00.55.55.551.551 0 00.552-.55v-2.492h1.609v7.114H5.439z"/></g><defs><clipPath id="iclip0"><path fill="#fff" transform="rotate(45 9.9 23.9)" d="M0 0h28v28H0z"/></clipPath></defs></svg><svg viewBox="0 0 30 30" id="search" xmlns="http://www.w3.org/2000/svg"><g clip-path="url(#jclip0)"><path d="M29.817 28.933l-9.128-9.128a11.813 11.813 0 003.061-7.93C23.75 5.327 18.423 0 11.875 0S0 5.327 0 11.875 5.327 23.75 11.875 23.75c3.05 0 5.825-1.165 7.93-3.061l9.128 9.128a.623.623 0 00.884 0 .625.625 0 000-.884zM11.875 22.5C6.017 22.5 1.25 17.734 1.25 11.875S6.017 1.25 11.875 1.25 22.5 6.016 22.5 11.875 17.733 22.5 11.875 22.5z"/></g><defs><clipPath id="jclip0"><path d="M0 0h30v30H0z"/></clipPath></defs></svg><svg version="1.0" viewBox="0 0 30 30" id="search1" xmlns="http://www.w3.org/2000/svg"><path d="M7.5.9C4 2.5.8 6.7.4 10.7c-.6 5 2.4 9.9 7.4 12 3.4 1.4 4.1 1.4 8.2 0l4.5-1.6 5 4.7 5 4.7-4.8-5.1-4.8-5 1.7-3.9c1.9-4.7.8-9.8-3-13.4C17 .6 10.7-.5 7.5.9zm11.1 2.5c3.2 2.2 4.7 8 3 12-2.7 6.3-8.4 8.7-14.2 6C1.6 18.6-.4 12.7 2.5 7c3-5.7 10.3-7.3 16.1-3.6z"/></svg><svg fill="none" viewBox="0 0 18 18" id="share" xmlns="http://www.w3.org/2000/svg"><path d="M14.426 5.625a2.816 2.816 0 01-2.813-2.813A2.816 2.816 0 0114.426 0a2.816 2.816 0 012.812 2.813 2.816 2.816 0 01-2.812 2.812zm0-4.5a1.69 1.69 0 00-1.688 1.688c0 .93.758 1.687 1.688 1.687a1.69 1.69 0 001.687-1.688 1.69 1.69 0 00-1.687-1.687zM14.426 18a2.816 2.816 0 01-2.813-2.813 2.816 2.816 0 012.813-2.812 2.816 2.816 0 012.812 2.813A2.816 2.816 0 0114.426 18zm0-4.5a1.69 1.69 0 00-1.688 1.688c0 .93.758 1.687 1.688 1.687a1.69 1.69 0 001.687-1.688 1.69 1.69 0 00-1.687-1.687zM3.55 11.813A2.816 2.816 0 01.739 9a2.816 2.816 0 012.813-2.813A2.816 2.816 0 016.363 9a2.816 2.816 0 01-2.812 2.813zm0-4.5A1.69 1.69 0 001.864 9c0 .93.758 1.688 1.688 1.688A1.69 1.69 0 005.238 9a1.69 1.69 0 00-1.687-1.688z" fill="#799BC9"/><path d="M5.51 8.452a.561.561 0 01-.28-1.05l6.96-3.968a.562.562 0 01.556.977L5.786 8.38a.564.564 0 01-.277.073zM12.467 14.64a.557.557 0 01-.277-.074l-6.96-3.968a.563.563 0 01.557-.977l6.96 3.967a.562.562 0 01-.28 1.052z" fill="#799BC9"/></svg><svg viewBox="0 0 30 30" id="shopping-bags" xmlns="http://www.w3.org/2000/svg"><path d="M26.622 9.4l-1.525-2.543a.508.508 0 00-.436-.247H5.339a.508.508 0 00-.436.247L3.377 9.399a.509.509 0 00.436.77h22.373a.508.508 0 00.436-.77zm-21.91-.247l.915-1.526h18.746l.915 1.526H4.711z"/><path d="M26.694 9.635a.509.509 0 00-.508-.482H3.814a.509.509 0 00-.508.482l-1.017 19.83a.509.509 0 00.507.535h24.407a.511.511 0 00.508-.535l-1.017-19.83zM3.331 28.983l.965-18.814h21.407l.965 18.814H3.33z"/><path d="M18.813 11.186c-.84 0-1.525.684-1.525 1.526 0 .84.684 1.525 1.525 1.525.841 0 1.526-.684 1.526-1.525 0-.841-.684-1.526-1.526-1.526zm0 2.034a.509.509 0 11.001-1.018.509.509 0 010 1.018zM11.186 11.186c-.841 0-1.525.684-1.525 1.526 0 .84.684 1.525 1.525 1.525.841 0 1.526-.684 1.526-1.525 0-.841-.685-1.526-1.526-1.526zm0 2.034a.509.509 0 11.001-1.018.509.509 0 010 1.018zM15 0a4.327 4.327 0 00-4.322 4.322v2.797c0 .28.227.508.508.508h7.627c.28 0 .509-.228.509-.508V4.322A4.327 4.327 0 0015 0zm3.305 6.61h-6.61V4.322A3.309 3.309 0 0115 1.017a3.309 3.309 0 013.305 3.305V6.61z"/><path d="M18.813 12.712h-.039a.509.509 0 00-.469.704v2.6A3.309 3.309 0 0115 19.323a3.309 3.309 0 01-3.305-3.305V13.22a.509.509 0 00-1.017 0v2.797A4.327 4.327 0 0015 20.339a4.327 4.327 0 004.322-4.322V13.22a.509.509 0 00-.509-.508z"/></svg><svg fill="none" viewBox="0 0 26 26" id="shopping-bags_white" xmlns="http://www.w3.org/2000/svg"><path d="M23.073 8.146L21.75 5.942a.44.44 0 00-.378-.213H4.627a.44.44 0 00-.378.213L2.927 8.146a.441.441 0 00.378.667h19.39a.44.44 0 00.378-.667zm-18.99-.214l.794-1.322h16.246l.793 1.322H4.084z" fill="#fff"/><path d="M23.135 8.35a.44.44 0 00-.44-.418H3.305a.44.44 0 00-.44.418l-.882 17.187a.44.44 0 00.44.463h21.153a.442.442 0 00.44-.463l-.88-17.187zM2.887 25.12l.837-16.305h18.552l.836 16.305H2.887z" fill="#fff"/><path d="M16.305 9.695c-.73 0-1.322.593-1.322 1.322 0 .729.593 1.322 1.322 1.322.729 0 1.322-.593 1.322-1.322 0-.73-.593-1.322-1.322-1.322zm0 1.763a.441.441 0 110-.882.441.441 0 010 .882zM9.695 9.695c-.73 0-1.322.593-1.322 1.322 0 .729.593 1.322 1.322 1.322.729 0 1.322-.593 1.322-1.322 0-.73-.593-1.322-1.322-1.322zm0 1.763a.441.441 0 110-.883.441.441 0 010 .883zM13 0a3.75 3.75 0 00-3.746 3.746v2.423c0 .244.197.441.44.441h6.61a.44.44 0 00.441-.44V3.745A3.75 3.75 0 0013 0zm2.864 5.729h-5.729V3.746A2.868 2.868 0 0113 .88a2.868 2.868 0 012.864 2.865v1.983z" fill="#fff"/><path d="M16.305 11.017h-.034a.44.44 0 00-.407.61v2.254A2.868 2.868 0 0113 16.746a2.868 2.868 0 01-2.865-2.865v-2.423a.44.44 0 00-.881 0v2.423A3.75 3.75 0 0013 17.627a3.75 3.75 0 003.745-3.746v-2.423a.44.44 0 00-.44-.441z" fill="#fff"/></svg><svg fill="none" viewBox="0 0 20 20" id="star" xmlns="http://www.w3.org/2000/svg"><path d="M19.971 7.706a.586.586 0 00-.473-.4l-6.2-.9L10.525.788a.586.586 0 00-1.05 0L6.702 6.406l-6.2.9a.586.586 0 00-.325 1l4.486 4.373-1.059 6.176a.586.586 0 00.85.617L10 16.557l5.545 2.915a.585.585 0 00.85-.617l-1.059-6.176 4.487-4.373a.586.586 0 00.148-.6zm-5.673 4.35a.586.586 0 00-.169.518l.91 5.308-4.766-2.506a.586.586 0 00-.546 0L4.96 17.882l.91-5.308a.586.586 0 00-.168-.519l-3.857-3.76 5.33-.774a.586.586 0 00.441-.32L10 2.37l2.384 4.83c.085.173.25.292.44.32l5.33.775-3.856 3.76z" fill="#799BC9"/></svg><svg fill="none" viewBox="0 0 18 18" id="star-active" xmlns="http://www.w3.org/2000/svg"><path d="M17.974 6.935a.527.527 0 00-.425-.359l-5.58-.81L9.472.708a.527.527 0 00-.946 0L6.031 5.765l-5.58.811a.527.527 0 00-.292.9l4.038 3.936-.953 5.557a.527.527 0 00.765.556L9 14.901l4.99 2.624a.527.527 0 00.766-.556l-.953-5.557 4.038-3.936a.527.527 0 00.133-.54z" fill="#799BC9"/></svg><svg fill="none" viewBox="0 0 28 28" id="telegram" xmlns="http://www.w3.org/2000/svg"><path d="M14 28c7.732 0 14-6.268 14-14S21.732 0 14 0 0 6.268 0 14s6.268 14 14 14z" fill="#039BE5"/><path d="M6.406 13.697l13.499-5.205c.626-.226 1.173.153.97 1.1h.002l-2.299 10.827c-.17.768-.626.954-1.264.593l-3.5-2.58-1.689 1.627c-.186.186-.344.344-.705.344l.248-3.562 6.487-5.86c.282-.249-.063-.389-.435-.142l-8.017 5.047-3.455-1.077c-.75-.239-.767-.75.158-1.112z" fill="#fff"/></svg><svg fill="none" viewBox="0 0 38 12" id="vector" xmlns="http://www.w3.org/2000/svg"><path d="M37.53 6.53a.75.75 0 000-1.06L32.757.697a.75.75 0 00-1.06 1.06L35.939 6l-4.242 4.243a.75.75 0 001.06 1.06L37.53 6.53zM0 6.75h37v-1.5H0v1.5z" fill="#fff"/></svg><svg fill="none" viewBox="0 0 28 28" id="whatsapp" xmlns="http://www.w3.org/2000/svg"><path d="M14.004 0h-.008C6.277 0 0 6.279 0 14c0 3.063.987 5.901 2.665 8.206l-1.744 5.2 5.38-1.72A13.879 13.879 0 0014.005 28C21.723 28 28 21.72 28 14S21.723 0 14.004 0z" fill="#4CAF50"/><path d="M22.15 19.77c-.338.954-1.678 1.745-2.747 1.976-.732.155-1.687.28-4.904-1.054-4.114-1.704-6.764-5.885-6.97-6.156-.198-.272-1.663-2.214-1.663-4.223 0-2.01 1.02-2.987 1.432-3.407.338-.345.896-.503 1.431-.503.174 0 .33.01.47.016.41.018.617.042.888.691.338.814 1.16 2.823 1.259 3.03.1.206.2.486.06.757-.132.28-.248.405-.454.643-.207.238-.403.42-.61.675-.188.222-.402.46-.164.872.238.402 1.06 1.744 2.272 2.822 1.563 1.392 2.83 1.836 3.283 2.025.338.14.74.107.987-.156.313-.337.7-.897 1.094-1.449.28-.395.633-.444 1.004-.304.378.131 2.378 1.12 2.79 1.325.41.206.682.304.782.477.098.174.098.987-.24 1.943z" fill="#FAFAFA"/></svg><svg viewBox="0 0 30 30" id="woman" xmlns="http://www.w3.org/2000/svg"><g clip-path="url(#tclip0)"><path d="M25.125 26.546V29.5a.5.5 0 01-1 0v-2.954c0-2.3-1.86-4.16-4.16-4.16a3.07 3.07 0 01-2.642-1.483.5.5 0 01.854-.52 2.077 2.077 0 001.787 1.003 5.158 5.158 0 015.161 5.16zm-8.342-3.871L15 24.055l-3.032-2.347a3.063 3.063 0 001.146-2.159 6.695 6.695 0 008.573-6.416c0-.04.002-3.501-.001-3.54a.5.5 0 00-.498-.468c-.086 0-.702.122-1.305-.241-.94-.566-.945-1.806-.945-1.819a.5.5 0 00-.79-.41 16.114 16.114 0 01-7.089 2.812.5.5 0 00.069.996c.079 0 1.7-.199 3.543-.868a17.14 17.14 0 003.392-1.677c.368 1.383 1.402 2.152 2.625 2.221v2.994A5.694 5.694 0 0115 18.82a5.694 5.694 0 01-5.687-5.687V9.625a.5.5 0 00-1 0v3.508c0 2.659 1.56 4.96 3.812 6.037v.132a2.085 2.085 0 01-2.089 2.084c-.633 0-1.256.114-1.845.34l-.323-.257c-2.533-2.017-3.008-5.576-1.28-8.17A6.907 6.907 0 007.75 9.46V6.75C7.75 3.58 10.33 1 13.5 1h3c3.17 0 5.75 2.58 5.75 5.75v2.708c0 1.376.4 2.702 1.157 3.834a6.108 6.108 0 01-.049 6.864.5.5 0 10.824.567 7.107 7.107 0 00.056-7.987 5.876 5.876 0 01-.988-3.278V6.75A6.758 6.758 0 0016.5 0h-3a6.758 6.758 0 00-6.75 6.75v2.708a5.91 5.91 0 01-.995 3.288 7.105 7.105 0 001.458 9.48 5.146 5.146 0 00-2.338 4.32V29.5a.5.5 0 001 0v-2.954c0-2.3 1.861-4.16 4.16-4.16.332 0 .66-.053.974-.156l3.685 2.853a.5.5 0 00.612 0l2.09-1.618a.5.5 0 10-.613-.79z"/></g><defs><clipPath id="tclip0"><path d="M0 0h30v30H0z"/></clipPath></defs></svg></svg>