<?xml version="1.0" encoding="utf-8"?><svg viewBox="0 0 40 40" xmlns="http://www.w3.org/2000/svg" xmlns:xlink="http://www.w3.org/1999/xlink"><style>:root>svg{display:none}:root>svg:target{display:block}</style><svg fill="none" viewBox="0 0 21 20" id="close" xmlns="http://www.w3.org/2000/svg"><path stroke="#989898" d="M1.354.646l19 19M1.302 19.646l19-19"/></svg><svg fill="none" viewBox="0 0 30 30" id="heart" xmlns="http://www.w3.org/2000/svg"><path d="M21.75 1.25A8.265 8.265 0 0015 4.764 8.265 8.265 0 008.25 1.25C3.855 1.25 0 5.34 0 10c0 4.543 2.565 9.22 7.418 13.53a39.907 39.907 0 007.353 5.164.501.501 0 00.458 0 39.905 39.905 0 007.35-5.164C27.436 19.22 30 14.542 30 10c0-4.66-3.855-8.75-8.25-8.75zM15 27.681C13.164 26.668 1 19.588 1 10c0-4.128 3.387-7.75 7.25-7.75a7.265 7.265 0 016.315 3.696.52.52 0 00.87 0A7.265 7.265 0 0121.75 2.25C25.613 2.25 29 5.872 29 10c0 9.588-12.164 16.668-14 17.681z" fill="#292929"/></svg><svg fill="none" viewBox="0 0 30 30" id="phone" xmlns="http://www.w3.org/2000/svg"><path d="M25.605 4.391c-5.86-5.857-15.357-5.855-21.214.004-5.857 5.858-5.855 15.356.004 21.213 5.858 5.857 15.356 5.855 21.213-.003a15 15 0 00-.003-21.214zm-2.888 16.503l-.002.002v-.005l-.76.755a4 4 0 01-3.775 1.08 13.291 13.291 0 01-3.86-1.73 17.835 17.835 0 01-3.045-2.455A17.969 17.969 0 019 15.781a13.997 13.997 0 01-1.71-3.46 4 4 0 011-4.085l.89-.89a.635.635 0 01.898-.002l.002.002 2.81 2.81a.635.635 0 010 .9l-1.65 1.65a1.345 1.345 0 00-.14 1.75c.596.82 1.257 1.59 1.975 2.305.8.804 1.67 1.535 2.6 2.185a1.355 1.355 0 001.73-.15L19 17.176a.635.635 0 01.898-.002c0 .001 0 .002.002.002l2.815 2.82c.248.248.25.65.002.898z" fill="#799BC9"/></svg><svg fill="none" viewBox="0 0 30 30" id="search" xmlns="http://www.w3.org/2000/svg"><g clip-path="url(#dclip0)"><path d="M29.817 28.933l-9.128-9.128a11.813 11.813 0 003.061-7.93C23.75 5.327 18.423 0 11.875 0S0 5.327 0 11.875 5.327 23.75 11.875 23.75c3.05 0 5.825-1.165 7.93-3.061l9.128 9.128a.623.623 0 00.884 0 .625.625 0 000-.884zM11.875 22.5C6.017 22.5 1.25 17.734 1.25 11.875S6.017 1.25 11.875 1.25 22.5 6.016 22.5 11.875 17.733 22.5 11.875 22.5z" fill="#292929"/></g><defs><clipPath id="dclip0"><path fill="#fff" d="M0 0h30v30H0z"/></clipPath></defs></svg><svg version="1.0" viewBox="0 0 30 30" id="search1" xmlns="http://www.w3.org/2000/svg"><path d="M7.5.9C4 2.5.8 6.7.4 10.7c-.6 5 2.4 9.9 7.4 12 3.4 1.4 4.1 1.4 8.2 0l4.5-1.6 5 4.7 5 4.7-4.8-5.1-4.8-5 1.7-3.9c1.9-4.7.8-9.8-3-13.4C17 .6 10.7-.5 7.5.9zm11.1 2.5c3.2 2.2 4.7 8 3 12-2.7 6.3-8.4 8.7-14.2 6C1.6 18.6-.4 12.7 2.5 7c3-5.7 10.3-7.3 16.1-3.6z"/></svg><svg fill="none" viewBox="0 0 30 30" id="shopping-bags" xmlns="http://www.w3.org/2000/svg"><path d="M26.622 9.4l-1.525-2.543a.508.508 0 00-.436-.247H5.339a.508.508 0 00-.436.247L3.377 9.399a.509.509 0 00.436.77h22.373a.508.508 0 00.436-.77zm-21.91-.247l.915-1.526h18.746l.915 1.526H4.711z" fill="#292929"/><path d="M26.694 9.635a.509.509 0 00-.508-.482H3.814a.509.509 0 00-.508.482l-1.017 19.83a.509.509 0 00.507.535h24.407a.511.511 0 00.508-.535l-1.017-19.83zM3.331 28.983l.965-18.814h21.407l.965 18.814H3.33z" fill="#292929"/><path d="M18.813 11.186c-.84 0-1.525.684-1.525 1.526 0 .84.684 1.525 1.525 1.525.841 0 1.526-.684 1.526-1.525 0-.841-.684-1.526-1.526-1.526zm0 2.034a.509.509 0 11.001-1.018.509.509 0 010 1.018zM11.186 11.186c-.841 0-1.525.684-1.525 1.526 0 .84.684 1.525 1.525 1.525.841 0 1.526-.684 1.526-1.525 0-.841-.685-1.526-1.526-1.526zm0 2.034a.509.509 0 11.001-1.018.509.509 0 010 1.018zM15 0a4.327 4.327 0 00-4.322 4.322v2.797c0 .28.227.508.508.508h7.627c.28 0 .509-.228.509-.508V4.322A4.327 4.327 0 0015 0zm3.305 6.61h-6.61V4.322A3.309 3.309 0 0115 1.017a3.309 3.309 0 013.305 3.305V6.61z" fill="#292929"/><path d="M18.813 12.712h-.039a.509.509 0 00-.469.704v2.6A3.309 3.309 0 0115 19.323a3.309 3.309 0 01-3.305-3.305V13.22a.509.509 0 00-1.017 0v2.797A4.327 4.327 0 0015 20.339a4.327 4.327 0 004.322-4.322V13.22a.509.509 0 00-.509-.508z" fill="#292929"/></svg><svg fill="none" viewBox="0 0 28 28" id="telegram" xmlns="http://www.w3.org/2000/svg"><path d="M14 28c7.732 0 14-6.268 14-14S21.732 0 14 0 0 6.268 0 14s6.268 14 14 14z" fill="#039BE5"/><path d="M6.406 13.697l13.499-5.205c.626-.226 1.173.153.97 1.1h.002l-2.299 10.827c-.17.768-.626.954-1.264.593l-3.5-2.58-1.689 1.627c-.186.186-.344.344-.705.344l.248-3.562 6.487-5.86c.282-.249-.063-.389-.435-.142l-8.017 5.047-3.455-1.077c-.75-.239-.767-.75.158-1.112z" fill="#fff"/></svg><svg fill="none" viewBox="0 0 38 12" id="vector" xmlns="http://www.w3.org/2000/svg"><path d="M37.53 6.53a.75.75 0 000-1.06L32.757.697a.75.75 0 00-1.06 1.06L35.939 6l-4.242 4.243a.75.75 0 001.06 1.06L37.53 6.53zM0 6.75h37v-1.5H0v1.5z" fill="#fff"/></svg><svg fill="none" viewBox="0 0 28 28" id="whatsapp" xmlns="http://www.w3.org/2000/svg"><path d="M14.004 0h-.008C6.277 0 0 6.279 0 14c0 3.063.987 5.901 2.665 8.206l-1.744 5.2 5.38-1.72A13.879 13.879 0 0014.005 28C21.723 28 28 21.72 28 14S21.723 0 14.004 0z" fill="#4CAF50"/><path d="M22.15 19.77c-.338.954-1.678 1.745-2.747 1.976-.732.155-1.687.28-4.904-1.054-4.114-1.704-6.764-5.885-6.97-6.156-.198-.272-1.663-2.214-1.663-4.223 0-2.01 1.02-2.987 1.432-3.407.338-.345.896-.503 1.431-.503.174 0 .33.01.47.016.41.018.617.042.888.691.338.814 1.16 2.823 1.259 3.03.1.206.2.486.06.757-.132.28-.248.405-.454.643-.207.238-.403.42-.61.675-.188.222-.402.46-.164.872.238.402 1.06 1.744 2.272 2.822 1.563 1.392 2.83 1.836 3.283 2.025.338.14.74.107.987-.156.313-.337.7-.897 1.094-1.449.28-.395.633-.444 1.004-.304.378.131 2.378 1.12 2.79 1.325.41.206.682.304.782.477.098.174.098.987-.24 1.943z" fill="#FAFAFA"/></svg><svg fill="none" viewBox="0 0 30 30" id="woman" xmlns="http://www.w3.org/2000/svg"><g clip-path="url(#jclip0)"><path d="M25.125 26.546V29.5a.5.5 0 01-1 0v-2.954c0-2.3-1.86-4.16-4.16-4.16a3.07 3.07 0 01-2.642-1.483.5.5 0 01.854-.52 2.077 2.077 0 001.787 1.003 5.158 5.158 0 015.161 5.16zm-8.342-3.871L15 24.055l-3.032-2.347a3.063 3.063 0 001.146-2.159 6.695 6.695 0 008.573-6.416c0-.04.002-3.501-.001-3.54a.5.5 0 00-.498-.468c-.086 0-.702.122-1.305-.241-.94-.566-.945-1.806-.945-1.819a.5.5 0 00-.79-.41 16.114 16.114 0 01-7.089 2.812.5.5 0 00.069.996c.079 0 1.7-.199 3.543-.868a17.14 17.14 0 003.392-1.677c.368 1.383 1.402 2.152 2.625 2.221v2.994A5.694 5.694 0 0115 18.82a5.694 5.694 0 01-5.687-5.687V9.625a.5.5 0 00-1 0v3.508c0 2.659 1.56 4.96 3.812 6.037v.132a2.085 2.085 0 01-2.089 2.084c-.633 0-1.256.114-1.845.34l-.323-.257c-2.533-2.017-3.008-5.576-1.28-8.17A6.907 6.907 0 007.75 9.46V6.75C7.75 3.58 10.33 1 13.5 1h3c3.17 0 5.75 2.58 5.75 5.75v2.708c0 1.376.4 2.702 1.157 3.834a6.108 6.108 0 01-.049 6.864.5.5 0 10.824.567 7.107 7.107 0 00.056-7.987 5.876 5.876 0 01-.988-3.278V6.75A6.758 6.758 0 0016.5 0h-3a6.758 6.758 0 00-6.75 6.75v2.708a5.91 5.91 0 01-.995 3.288 7.105 7.105 0 001.458 9.48 5.146 5.146 0 00-2.338 4.32V29.5a.5.5 0 001 0v-2.954c0-2.3 1.861-4.16 4.16-4.16.332 0 .66-.053.974-.156l3.685 2.853a.5.5 0 00.612 0l2.09-1.618a.5.5 0 10-.613-.79z" fill="#292929"/></g><defs><clipPath id="jclip0"><path fill="#fff" d="M0 0h30v30H0z"/></clipPath></defs></svg></svg>